<?xml version="1.0" standalone="no"?>
<!DOCTYPE svg PUBLIC "-//W3C//DTD SVG 20010904//EN"
 "http://www.w3.org/TR/2001/REC-SVG-20010904/DTD/svg10.dtd">
<svg version="1.0" xmlns="http://www.w3.org/2000/svg"
 width="200.000000pt" height="200.000000pt" viewBox="0 0 200.000000 200.000000"
 preserveAspectRatio="xMidYMid meet">

<g transform="translate(0.000000,200.000000) scale(0.100000,-0.100000)"
fill="#000000" stroke="none">
<path d="M855 1986 c-293 -46 -549 -216 -703 -465 -148 -241 -186 -553 -100
-821 100 -314 355 -561 675 -656 109 -32 319 -44 440 -24 329 53 629 293 755
607 70 174 90 334 63 513 -66 454 -413 793 -869 850 -100 12 -159 11 -261 -4z
m354 -206 c40 -11 86 -27 102 -35 l28 -15 -165 -236 c-91 -130 -164 -238 -162
-240 3 -2 44 -5 92 -6 l88 -3 139 200 c77 110 143 201 147 203 14 4 113 -91
164 -157 61 -81 110 -181 139 -286 32 -110 32 -295 0 -409 -76 -283 -299 -502
-586 -577 -110 -28 -280 -29 -388 0 -84 22 -197 69 -197 81 0 5 74 115 166
245 91 130 168 243 171 251 5 13 -9 14 -88 12 l-94 -3 -145 -207 -144 -208
-49 48 c-147 143 -228 342 -229 562 -1 138 16 219 73 339 114 244 334 413 601
460 81 15 252 5 337 -19z"/>
<path d="M361 1159 c-26 -25 -28 -83 -3 -121 9 -14 38 -51 65 -81 26 -30 47
-59 47 -65 0 -35 -62 -12 -75 28 -4 13 -15 20 -31 20 -21 0 -24 -3 -18 -27 13
-62 11 -60 80 -61 76 -1 110 15 119 57 8 39 -8 74 -70 149 -30 37 -55 72 -55
79 0 22 25 14 55 -17 32 -34 70 -41 61 -12 -3 9 -8 29 -11 43 -6 24 -10 25
-74 27 -56 1 -72 -3 -90 -19z"/>
<path d="M577 1173 c-4 -3 -7 -21 -7 -40 0 -26 4 -33 20 -33 13 0 22 9 26 25
3 14 12 25 20 25 21 0 20 -252 -1 -270 -26 -21 -6 -30 71 -30 58 0 74 3 74 14
0 8 -4 18 -10 21 -14 8 -13 265 0 265 6 0 15 -11 20 -25 6 -15 17 -25 30 -25
22 0 25 15 10 54 -9 26 -10 26 -128 26 -65 0 -122 -3 -125 -7z"/>
<path d="M890 1166 c0 -8 4 -17 9 -20 9 -6 -45 -246 -60 -261 -22 -22 -8 -35
36 -35 42 0 58 11 35 25 -5 3 -10 15 -10 26 0 16 7 19 40 19 33 0 40 -3 40
-19 0 -11 -5 -23 -10 -26 -24 -15 6 -25 69 -25 75 0 88 6 67 29 -7 9 -26 72
-41 141 -15 69 -31 133 -36 143 -13 23 -139 26 -139 3z m79 -203 c1 -19 -4
-23 -29 -23 -33 0 -34 4 -19 70 16 75 21 79 35 25 6 -27 13 -60 13 -72z"/>
<path d="M1135 1170 c-3 -6 1 -17 9 -26 23 -22 23 -246 1 -264 -30 -25 -13
-30 95 -30 109 0 111 0 120 26 15 38 12 54 -10 54 -12 0 -26 -12 -35 -30 -9
-16 -22 -30 -30 -30 -13 0 -15 23 -15 135 0 114 2 135 16 143 9 5 14 14 10 21
-9 14 -152 15 -161 1z"/>
<path d="M1390 1166 c0 -8 5 -18 10 -21 6 -4 10 -58 10 -130 0 -72 -4 -126
-10 -130 -5 -3 -10 -13 -10 -21 0 -11 16 -14 75 -14 60 0 75 3 75 15 0 8 -4
15 -10 15 -5 0 -10 23 -10 50 0 28 4 50 9 50 14 0 41 -83 35 -107 -6 -22 -4
-23 65 -23 72 0 87 10 60 37 -7 7 -29 53 -50 104 l-38 92 26 33 c14 19 29 34
34 34 5 0 9 7 9 15 0 11 -11 15 -43 15 -49 0 -62 -7 -46 -26 9 -11 3 -26 -22
-66 l-34 -53 -3 49 c-2 27 2 54 7 59 28 28 11 37 -64 37 -59 0 -75 -3 -75 -14z"/>
</g>
</svg>
